<?xml version="1.0" encoding="utf-8"?>
<!-- Generator: Adobe Illustrator 21.0.2, SVG Export Plug-In . SVG Version: 6.00 Build 0)  -->
<svg version="1.1" id="Vrstva_1" xmlns="http://www.w3.org/2000/svg" xmlns:xlink="http://www.w3.org/1999/xlink" x="0px" y="0px"
	 viewBox="0 0 81.4 31" style="enable-background:new 0 0 81.4 31;" xml:space="preserve">
<g>
	<path d="M3.5,19.3c0-0.6-0.3-1.2-1.4-1.2V17c1.1,0,1.4-0.6,1.4-1.2c0-1-0.1-1.8-0.1-2.9c0-1.7,0.6-2.2,2-2.2h0.9v1H5.9
		c-0.8,0-1,0.3-1,1.3c0,0.9,0.1,1.8,0.1,2.8c0,1.1-0.3,1.6-1.1,1.8v0.1C4.7,17.9,5,18.4,5,19.5c0,1-0.1,1.8-0.1,2.8s0.2,1.3,1,1.3
		h0.4v1H5.4c-1.3,0-2-0.5-2-2.2C3.4,21,3.5,20.3,3.5,19.3z"/>
	<path d="M17.1,21.9l-2.2-4h-1.6V22h-1.9V11.5h3.5c2.2,0,3.9,0.8,3.9,3.1c0,1.6-0.8,2.6-2.1,3l2.5,4.4h-2.1V21.9z M13.3,16.4h1.5
		c1.4,0,2.2-0.6,2.2-1.8S16.2,13,14.8,13h-1.5V16.4z"/>
	<path d="M21,11.5h6.3v1.6h-4.4v2.7h3.8v1.6h-3.8v3.1h4.6v1.6H21C21,22.1,21,11.5,21,11.5z"/>
	<path d="M29.9,19.3c0.8,0.7,1.8,1.2,2.7,1.2c1.2,0,1.8-0.5,1.8-1.3c0-0.9-0.7-1.1-1.6-1.5L31.4,17c-1-0.4-2.1-1.2-2.1-2.8
		c0-1.7,1.5-2.9,3.5-2.9c1.2,0,2.4,0.5,3.2,1.3l-1,1.2c-0.7-0.6-1.4-0.9-2.3-0.9c-1,0-1.6,0.5-1.6,1.2c0,0.8,0.8,1.1,1.7,1.5
		l1.4,0.6c1.2,0.5,2.1,1.3,2.1,2.8c0,1.7-1.4,3.1-3.8,3.1c-1.4,0-2.8-0.6-3.8-1.5L29.9,19.3z"/>
	<path d="M40,13.1h-3v-1.6h7.9v1.6h-3V22H40V13.1z"/>
	<path d="M54.7,19.1h-3.5l-0.8,2.8h-1.9l3.4-10.4h2.2L57.5,22h-2L54.7,19.1z M54.3,17.7l-0.4-1.3c-0.3-1.1-0.6-2.3-0.9-3.5h-0.1
		c-0.3,1.2-0.6,2.4-0.9,3.5l-0.4,1.3C51.6,17.7,54.3,17.7,54.3,17.7z"/>
	<path d="M58.7,11.5h3.5c2.3,0,4,0.8,4,3.2c0,2.3-1.7,3.4-4,3.4h-1.7v3.8h-1.9L58.7,11.5L58.7,11.5z M62.1,16.6
		c1.6,0,2.3-0.6,2.3-1.9S63.6,13,62.1,13h-1.5v3.6H62.1z"/>
	<path d="M68.1,11.5H70V22h-1.9V11.5z"/>
	<path d="M75.5,23.4c0.8,0,1-0.3,1-1.3c0-0.9-0.1-1.7-0.1-2.8c0-1.1,0.3-1.6,1.1-1.8v-0.1c-0.8-0.2-1.1-0.7-1.1-1.8
		c0-1,0.1-1.9,0.1-2.8c0-1-0.2-1.3-1-1.3h-0.4v-1H76c1.3,0,2,0.5,2,2.2c0,1.1-0.1,1.9-0.1,2.9c0,0.6,0.3,1.2,1.4,1.2v1.1
		c-1.1,0-1.4,0.6-1.4,1.2c0,1,0.1,1.7,0.1,2.9c0,1.7-0.6,2.2-2,2.2h-0.9v-1h0.4V23.4z"/>
</g>
</svg>
